<svg id="Icons" xmlns="http://www.w3.org/2000/svg" viewBox="0 0 64 64"><defs><style>.cls-1{opacity:0.35;}.cls-2{fill:#8acb44;}.cls-3{opacity:0.05;}</style></defs><title>user</title><g id="User"><g id="Hexagon_Border" data-name="Hexagon Border" class="cls-1"><path class="cls-2" d="M54.25,8.69h0l-.11-.05h0L36.25.69h0A8,8,0,0,0,30,.58h0l-.12,0h0L10,8.57h0A8,8,0,0,0,5,16V48a8,8,0,0,0,5,7.42h0l19.85,7.94h0l.12,0h0a8,8,0,0,0,6.22-.12h0L54.1,55.37h0l.11-.05h0A8,8,0,0,0,59,48V16A8,8,0,0,0,54.25,8.69ZM57,48a6,6,0,0,1-3.57,5.48h0l-.1,0h0l-17.89,8h0a5.89,5.89,0,0,1-4.66.09h0l-.1,0h0l-19.89-8h0A6,6,0,0,1,7,48V16a6,6,0,0,1,3.77-5.56h0l19.89-8h0l.1,0h0a5.89,5.89,0,0,1,4.66.09h0l17.89,8h0l.1,0h0A6,6,0,0,1,57,16Z"/></g><g id="Hexagon_Base" data-name="Hexagon Base" class="cls-3"><path class="cls-2" d="M53.43,10.52h0l-.1,0h0l-17.89-8h0a5.89,5.89,0,0,0-4.66-.09h0l-.1,0h0l-19.89,8h0A6,6,0,0,0,7,16V48a6,6,0,0,0,3.77,5.56h0l19.89,8h0l.1,0h0a5.89,5.89,0,0,0,4.66-.09h0l17.89-8h0l.1,0h0A6,6,0,0,0,57,48V16A6,6,0,0,0,53.43,10.52Z"/></g><g id="Icon"><path class="cls-2" d="M42.91,43.33c-.92-6-3.46-9.71-6.3-11.66A9.68,9.68,0,0,0,39,25.09c0-7.91-4.19-9.09-7-9.09s-7,1.18-7,9.09a9.72,9.72,0,0,0,2.35,6.57c-2.84,1.95-5.32,5.7-6.25,11.7a4,4,0,0,0,.75,3.35A3.68,3.68,0,0,0,24.6,48H39.4a3.68,3.68,0,0,0,2.77-1.29A4,4,0,0,0,42.91,43.33ZM39.4,46H24.6c-.07,0-2,0-1.57-2.33,1.15-7.51,4.24-10.48,7.65-11.35C29,30.61,26.94,29,26.94,25.09s.62-7.09,5-7.09S37,21.18,37,25.09s-2.1,5.52-3.74,7.22c3.42.87,6.56,3.84,7.72,11.35C41.37,46,39.47,46,39.4,46Z"/></g></g></svg>